<?xml version="1.0" encoding="utf-8"?>
<!-- Generator: Adobe Illustrator 22.0.1, SVG Export Plug-In . SVG Version: 6.00 Build 0)  -->
<svg version="1.1" id="레이어_1" xmlns="http://www.w3.org/2000/svg" xmlns:xlink="http://www.w3.org/1999/xlink" x="0px"
	 y="0px" viewBox="0 0 348 348" style="enable-background:new 0 0 348 348;" xml:space="preserve">
<style type="text/css">
	.st0{fill:none;stroke:#000000;stroke-width:2;}
	.st1{fill:#FFFFFF;stroke:#000000;stroke-width:2;stroke-miterlimit:10;}
</style>
<path class="st0" d="M5.1,5.8H342v337.7H5.1L5.1,5.8z"/>
<path class="st0" d="M282.7,40.6c0-8.4,7-15.2,15.6-15.2c4.1,0,8.1,1.6,11,4.4c2.9,2.8,4.6,6.7,4.6,10.7c0,8.4-7,15.2-15.6,15.2
	C289.7,55.7,282.7,48.9,282.7,40.6L282.7,40.6z"/>
<polygon class="st1" points="87.2,105.1 76.5,99.2 76.2,87 86.7,80.6 97.4,86.5 97.7,98.8 "/>
<polygon class="st1" points="44.3,147.5 33.6,141.6 33.4,129.3 43.8,123 54.6,128.9 54.8,141.1 "/>
<polygon class="st1" points="44.3,320.6 33.6,314.7 33.4,302.5 43.8,296.1 54.6,302 54.8,314.3 "/>
<polygon class="st1" points="88.2,278.1 77.5,272.2 77.2,260 87.7,253.6 98.4,259.5 98.7,271.8 "/>
<polygon class="st1" points="218.2,319.9 207.5,314 207.2,301.7 217.7,295.4 228.4,301.3 228.7,313.5 "/>
<polygon class="st1" points="260.7,277.5 250,271.6 249.7,259.3 260.2,253 270.9,258.9 271.2,271.1 "/>
<polygon class="st1" points="217.2,147.4 206.5,141.5 206.2,129.2 216.7,122.9 227.4,128.8 227.7,141 "/>
<polygon class="st1" points="260.7,105.1 250,99.2 249.7,87 260.2,80.6 270.9,86.5 271.2,98.8 "/>
</svg>
