<?xml version="1.0" encoding="utf-8"?>
<!-- Generator: Adobe Illustrator 22.0.1, SVG Export Plug-In . SVG Version: 6.00 Build 0)  -->
<svg version="1.1" id="레이어_1" xmlns="http://www.w3.org/2000/svg" xmlns:xlink="http://www.w3.org/1999/xlink" x="0px"
	 y="0px" viewBox="0 0 348 348" style="enable-background:new 0 0 348 348;" xml:space="preserve">
<style type="text/css">
	.st0{fill:none;stroke:#000000;stroke-width:2;}
	.st1{fill:#FFFFFF;stroke:#000000;stroke-width:2;stroke-miterlimit:10;}
</style>
<path class="st0" d="M5.1,5.8H342v337.7H5.1V5.8z"/>
<path class="st0" d="M33.4,40.6c0-8.4,7-15.2,15.6-15.2c4.1,0,8.1,1.6,11,4.4s4.6,6.7,4.6,10.7c0,8.4-7,15.2-15.6,15.2
	C40.4,55.7,33.4,48.9,33.4,40.6L33.4,40.6z"/>
<polygon class="st1" points="133,105.1 122.3,99.2 122,87 132.5,80.6 143.2,86.5 143.5,98.8 "/>
<polygon class="st1" points="90.1,147.5 79.4,141.6 79.2,129.3 89.6,123 100.4,128.9 100.6,141.1 "/>
<polygon class="st1" points="90.1,320.6 79.4,314.7 79.2,302.5 89.6,296.1 100.4,302 100.6,314.3 "/>
<polygon class="st1" points="134,278.1 123.3,272.2 123,260 133.5,253.6 144.2,259.5 144.5,271.8 "/>
<polygon class="st1" points="264,319.9 253.3,314 253,301.7 263.5,295.4 274.2,301.3 274.5,313.5 "/>
<polygon class="st1" points="306.5,277.5 295.8,271.6 295.5,259.3 306,253 316.7,258.9 317,271.1 "/>
<polygon class="st1" points="263,147.4 252.3,141.5 252,129.2 262.5,122.9 273.2,128.8 273.5,141 "/>
<polygon class="st1" points="306.5,105.1 295.8,99.2 295.5,87 306,80.6 316.7,86.5 317,98.8 "/>
</svg>
